<?xml version="1.0" encoding="UTF-8"?>
<svg xmlns="http://www.w3.org/2000/svg" xmlns:xlink="http://www.w3.org/1999/xlink" width="50px" height="50px" viewBox="0 0 50 50" version="1.1">
<g id="surface1">
<path style=" stroke:none;fill-rule:nonzero;fill:rgb(100%,100%,100%);fill-opacity:1;" d="M 40.976562 10.453125 C 40.960938 10.429688 40.945312 10.40625 40.914062 10.398438 C 37.9375 9.03125 34.789062 8.054688 31.5625 7.5 C 31.53125 7.492188 31.5 7.5 31.476562 7.507812 C 31.453125 7.515625 31.429688 7.539062 31.414062 7.570312 C 30.984375 8.34375 30.59375 9.148438 30.25 9.960938 C 26.765625 9.429688 23.226562 9.429688 19.75 9.960938 C 19.398438 9.140625 19.007812 8.34375 18.570312 7.570312 C 18.554688 7.546875 18.53125 7.523438 18.507812 7.507812 C 18.484375 7.492188 18.453125 7.492188 18.421875 7.492188 C 15.195312 8.046875 12.046875 9.023438 9.070312 10.390625 C 9.046875 10.398438 9.023438 10.421875 9.007812 10.445312 C 3.054688 19.335938 1.421875 28.015625 2.21875 36.578125 C 2.21875 36.601562 2.226562 36.617188 2.234375 36.640625 C 2.242188 36.664062 2.257812 36.671875 2.273438 36.6875 C 5.742188 39.257812 9.617188 41.21875 13.742188 42.484375 C 13.773438 42.492188 13.804688 42.492188 13.828125 42.484375 C 13.851562 42.476562 13.882812 42.453125 13.898438 42.429688 C 14.78125 41.226562 15.570312 39.945312 16.242188 38.617188 C 16.25 38.601562 16.257812 38.578125 16.257812 38.554688 C 16.257812 38.53125 16.257812 38.515625 16.25 38.492188 C 16.242188 38.46875 16.234375 38.453125 16.21875 38.445312 C 16.203125 38.4375 16.1875 38.421875 16.164062 38.414062 C 14.929688 37.9375 13.726562 37.367188 12.578125 36.703125 C 12.554688 36.6875 12.539062 36.671875 12.523438 36.65625 C 12.507812 36.640625 12.5 36.609375 12.5 36.585938 C 12.5 36.5625 12.5 36.539062 12.515625 36.515625 C 12.53125 36.492188 12.539062 36.476562 12.5625 36.460938 C 12.804688 36.28125 13.046875 36.09375 13.273438 35.90625 C 13.296875 35.890625 13.320312 35.875 13.34375 35.875 C 13.367188 35.875 13.398438 35.875 13.421875 35.882812 C 20.9375 39.3125 29.078125 39.3125 36.507812 35.882812 C 36.53125 35.875 36.5625 35.867188 36.585938 35.867188 C 36.609375 35.867188 36.640625 35.882812 36.65625 35.898438 C 36.882812 36.085938 37.125 36.28125 37.367188 36.460938 C 37.382812 36.476562 37.398438 36.492188 37.414062 36.515625 C 37.429688 36.539062 37.429688 36.5625 37.429688 36.585938 C 37.429688 36.609375 37.421875 36.632812 37.40625 36.65625 C 37.390625 36.679688 37.375 36.695312 37.359375 36.703125 C 36.210938 37.375 35.015625 37.945312 33.773438 38.40625 C 33.757812 38.414062 33.734375 38.421875 33.71875 38.4375 C 33.703125 38.453125 33.695312 38.46875 33.6875 38.492188 C 33.679688 38.515625 33.679688 38.53125 33.679688 38.554688 C 33.679688 38.578125 33.6875 38.59375 33.695312 38.617188 C 34.382812 39.945312 35.164062 41.21875 36.039062 42.429688 C 36.054688 42.453125 36.085938 42.476562 36.109375 42.484375 C 36.132812 42.492188 36.171875 42.492188 36.195312 42.484375 C 40.328125 41.21875 44.210938 39.257812 47.6875 36.6875 C 47.703125 36.671875 47.71875 36.65625 47.726562 36.640625 C 47.734375 36.625 47.742188 36.601562 47.742188 36.578125 C 48.703125 26.671875 46.140625 18.070312 40.953125 10.445312 Z M 17.382812 31.367188 C 15.117188 31.367188 13.257812 29.289062 13.257812 26.742188 C 13.257812 24.195312 15.085938 22.117188 17.382812 22.117188 C 19.703125 22.117188 21.546875 24.210938 21.507812 26.742188 C 21.507812 29.296875 19.679688 31.367188 17.382812 31.367188 Z M 32.648438 31.367188 C 30.382812 31.367188 28.523438 29.289062 28.523438 26.742188 C 28.523438 24.195312 30.351562 22.117188 32.648438 22.117188 C 34.96875 22.117188 36.8125 24.210938 36.773438 26.742188 C 36.773438 29.296875 34.960938 31.367188 32.648438 31.367188 Z M 32.648438 31.367188 "/>
</g>
</svg>
